Coordinates
version=1
nRows=18
nColumns=22
inDegrees=yes

Units are S.I. units (second, meters, Newtons, ...)
If the header above contains a line with 'inDegrees', this indicates whether rotational values are in degrees (yes) or radians (no).

endheader
time	pelvis_tilt	pelvis_list	pelvis_rotation	pelvis_tx	pelvis_ty	pelvis_tz	hip_flexion_r	hip_adduction_r	hip_rotation_r	knee_angle_r	ankle_angle_r	subtalar_angle_r	hip_flexion_l	hip_adduction_l	hip_rotation_l	knee_angle_l	ankle_angle_l	subtalar_angle_l	lumbar_extension	lumbar_bending	lumbar_rotation
      2.46000000	     -1.80764750	      3.62116474	    179.21639589	     -0.56215083	      1.02258137	     -0.05793844	      6.27759512	      7.02964057	      0.41414828	    -17.67471267	      8.50822288	     -3.53753247	     22.23734710	     -4.57036819	     -2.57528223	    -37.45224382	      8.81911395	      8.20704265	    -16.80285325	      3.68854430	      6.96162216
      2.47000000	     -1.91927965	      3.67550802	    179.26123181	     -0.55621875	      1.02299218	     -0.05761019	      6.36046711	      7.05315217	      0.30347271	    -17.34910927	      8.03762180	     -3.54245638	     21.94402805	     -4.63235494	     -2.28358763	    -39.48141273	      9.01814778	      8.06260364	    -16.75343923	      3.79048978	      7.12533864
      2.48000000	     -2.00761881	      3.78109551	    179.23869286	     -0.55033270	      1.02321210	     -0.05736922	      6.48254957	      7.13529186	      0.23329682	    -17.05722345	      7.57507261	     -3.54012434	     21.61745311	     -4.81649726	     -2.16356220	    -41.48611282	      9.22262154	      7.85530916	    -16.66702523	      3.93297942	      7.36256449
      2.49000000	     -2.03046326	      3.91911852	    179.14114111	     -0.54445221	      1.02317036	     -0.05722476	      6.71151056	      7.25946769	      0.21210016	    -16.83553050	      7.12699322	     -3.55240759	     21.29615681	     -5.10453125	     -2.21295933	    -43.44210032	      9.42308051	      7.40607901	    -16.49587103	      4.09414618	      7.64942143
      2.50000000	     -2.07617988	      4.09428962	    178.98454925	     -0.53857630	      1.02305454	     -0.05714523	      6.93111539	      7.42896086	      0.24517686	    -16.64524300	      6.68166184	     -3.51890101	     20.86836733	     -5.48453909	     -2.37903261	    -45.30760495	      9.60702053	      7.12260742	    -16.35146176	      4.28096270	      7.98933127
      2.51000000	     -2.08117201	      4.28215247	    178.77084116	     -0.53267811	      1.02276171	     -0.05708078	      7.23046899	      7.61534983	      0.31757585	    -16.52202920	      6.25734557	     -3.48213295	     20.39982860	     -5.91346327	     -2.63659305	    -47.06055230	      9.77506144	      6.76484713	    -16.15969937	      4.47783772	      8.36568190
      2.52000000	     -2.03435225	      4.45441086	    178.51035945	     -0.52675700	      1.02229599	     -0.05705796	      7.62939937	      7.79020536	      0.39539890	    -16.47954914	      5.87068560	     -3.43014330	     19.89180999	     -6.34757021	     -2.95833866	    -48.66313981	      9.92037933	      6.23762903	    -15.90348360	      4.64127890	      8.74995393
      2.53000000	     -2.02642060	      4.64874297	    178.24866214	     -0.52079960	      1.02182058	     -0.05697363	      8.00387545	      7.99070542	      0.50740982	    -16.46951327	      5.48610486	     -3.38024569	     19.25860256	     -6.79104203	     -3.25953043	    -50.11034516	     10.05696901	      5.96817147	    -15.70081398	      4.83526998	      9.09012754
      2.54000000	     -1.99285381	      4.82075356	    177.97485452	     -0.51480501	      1.02124504	     -0.05686191	      8.43754406	      8.17099609	      0.62800065	    -16.51512870	      5.12184078	     -3.31730641	     18.56307843	     -7.19599389	     -3.56302399	    -51.37220821	     10.18539553	      5.68740354	    -15.46993007	      4.99878662	      9.38468483
      2.55000000	     -1.94228772	      4.95795478	    177.71158250	     -0.50877580	      1.02059744	     -0.05664721	      8.92044136	      8.30983080	      0.72233104	    -16.61341605	      4.79949228	     -3.22098408	     17.80155688	     -7.52413539	     -3.83207919	    -52.43288794	     10.28724916	      5.36538889	    -15.22000736	      5.13092260	      9.59998057
      2.56000000	     -1.91245581	      5.08960462	    177.49040288	     -0.50269896	      1.01994687	     -0.05629533	      9.39456250	      8.43675385	      0.79717518	    -16.72860111	      4.45622604	     -3.15771963	     16.94863113	     -7.78374625	     -4.00236685	    -53.29148845	     10.39364256	      5.29018965	    -15.00076382	      5.26817482	      9.72160932
      2.57000000	     -1.87400260	      5.18393999	    177.30465274	     -0.49656773	      1.01925210	     -0.05580031	      9.90091377	      8.51699018	      0.84312818	    -16.87567011	      4.13926254	     -3.08165303	     16.04087663	     -7.94265267	     -4.09915413	    -53.93741613	     10.47889239	      5.28124721	    -14.77619607	      5.37425565	      9.73989711
      2.58000000	     -1.83141907	      5.23834595	    177.17163974	     -0.49039079	      1.01852498	     -0.05513360	     10.43389677	      8.54061977	      0.82156414	    -17.05109150	      3.84944348	     -3.01872562	     15.08353801	     -7.99035327	     -4.09893271	    -54.36548375	     10.54071763	      5.33961173	    -14.54858693	      5.44880443	      9.64303310
      2.59000000	     -1.79414681	      5.27365390	    177.07675103	     -0.48413540	      1.01778974	     -0.05433058	     10.96432533	      8.54031755	      0.83488128	    -17.22086986	      3.55269655	     -2.85861527	     14.07995470	     -7.95312731	     -4.00254890	    -54.59171304	     10.58946370	      5.68814832	    -14.34000759	      5.51090694	      9.44912743
      2.60000000	     -1.74550500	      5.25700995	    177.04802126	     -0.47780605	      1.01701124	     -0.05331646	     11.53603821	      8.46530877	      0.76052962	    -17.42596228	      3.28912039	     -2.77506815	     13.05798715	     -7.78423996	     -3.78026415	    -54.60633746	     10.60266188	      5.99480582	    -14.12244134	      5.53041537	      9.14628673
      2.61000000	     -1.69614309	      5.22432255	    177.05179398	     -0.47143198	      1.01621442	     -0.05217667	     12.11775490	      8.36186394	      0.64573499	    -17.63749378	      3.02754161	     -2.66889454	     12.00619605	     -7.55906884	     -3.50103828	    -54.42346978	     10.59513107	      6.49095272	    -13.90939885	      5.53847524	      8.76468032
      2.62000000	     -1.64282865	      5.16873534	    177.10279332	     -0.46495197	      1.01539848	     -0.05086477	     12.71088112	      8.22263308	      0.53716086	    -17.84542942	      2.74147105	     -2.56276753	     10.94414825	     -7.24614000	     -3.09366904	    -54.05330670	     10.55555461	      7.07133408	    -13.70528686	      5.53004568	      8.33185340
      2.63000000	     -1.59151547	      5.08958821	    177.20313952	     -0.45840768	      1.01457640	     -0.04937563	     13.30493355	      8.04008025	      0.38401518	    -18.04613859	      2.46003049	     -2.46644155	      9.86604576	     -6.86767005	     -2.59853747	    -53.49555593	     10.44678534	      7.62981376	    -13.50868697	      5.50612915	      7.82180756
